<svg width="60" height="66" viewBox="0 0 60 66" fill="none" xmlns="http://www.w3.org/2000/svg">
<ellipse cx="30.1849" cy="36.4055" rx="29.625" ry="29.5833" fill="url(#paint0_linear_9_1863)"/>
<mask id="mask0_9_1863" style="mask-type:alpha" maskUnits="userSpaceOnUse" x="0" y="0" width="60" height="66">
<ellipse cx="30.1849" cy="33.0502" rx="29.625" ry="32.9386" fill="white"/>
</mask>
<g mask="url(#mask0_9_1863)">
<path d="M78.06 58.6154C78.06 67.0137 71.2515 73.8221 62.8532 73.8221C54.4549 73.8221 47.647 67.0137 47.647 58.6154C47.647 50.217 54.4549 43.4091 62.8532 43.4091C71.2515 43.4091 78.06 50.217 78.06 58.6154Z" fill="url(#paint1_radial_9_1863)"/>
<path d="M77.989 60.0817C77.6922 63.2083 76.4457 66.0587 74.5433 68.3413C73.792 69.2433 72.9383 70.058 71.999 70.7632L61.5001 60.2643L58.8583 57.623C57.6882 56.5445 56.9542 54.9985 56.9542 53.2819C56.9542 50.0242 59.5955 47.3829 62.8532 47.3829C64.5698 47.3829 66.1158 48.1169 67.1943 49.287L77.989 60.0817Z" fill="url(#paint2_linear_9_1863)"/>
<path d="M74.5427 68.3414C73.7914 69.2433 72.9382 70.058 71.999 70.7633C69.4541 72.6852 66.2863 73.8222 62.8531 73.8222C62.423 73.8222 61.9973 73.8048 61.5758 73.7675L54.5826 66.784C55.328 63.4229 58.07 60.8146 61.5 60.2643C61.9415 60.1939 62.3932 60.1565 62.8531 60.1565C65.1937 60.1565 67.3112 61.1061 68.8442 62.6385L74.5427 68.3414Z" fill="url(#paint3_linear_9_1863)"/>
<path d="M68.7527 53.2824C68.7527 56.5407 66.1114 59.1814 62.8532 59.1814C59.5955 59.1814 56.9542 56.5407 56.9542 53.2824C56.9542 50.0242 59.5955 47.3829 62.8532 47.3829C66.1114 47.3829 68.7527 50.0242 68.7527 53.2824Z" fill="url(#paint4_linear_9_1863)"/>
<path d="M71.1247 66.7846C69.0181 68.9194 66.0897 70.2416 62.8531 70.2416C59.6171 70.2416 56.6887 68.9194 54.5826 66.7846C55.4239 62.9917 58.8067 60.1565 62.8531 60.1565C65.1937 60.1565 67.3112 61.1061 68.8442 62.6385C69.9628 63.756 70.7704 65.1855 71.1247 66.7846Z" fill="url(#paint5_linear_9_1863)"/>
<path d="M78.06 18.0289C78.06 26.4272 71.2515 33.2352 62.8532 33.2352C54.4549 33.2352 47.647 26.4272 47.647 18.0289C47.647 9.63061 54.4549 2.82214 62.8532 2.82214C71.2515 2.82214 78.06 9.63061 78.06 18.0289Z" fill="url(#paint6_linear_9_1863)"/>
<path d="M77.989 19.4952C77.6922 22.6213 76.4457 25.4716 74.5433 27.7549C73.792 28.6568 72.9383 29.4709 71.999 30.1767L61.5001 19.6772L58.8583 17.0359C57.6882 15.9575 56.9542 14.412 56.9542 12.6954C56.9542 9.43716 59.5955 6.7959 62.8532 6.7959C64.5698 6.7959 66.1158 7.52988 67.1943 8.70047L77.989 19.4952Z" fill="url(#paint7_linear_9_1863)"/>
<path d="M74.5428 27.7549C73.7915 28.6568 72.9383 29.471 71.999 30.1768C69.4536 32.0981 66.2864 33.2351 62.8532 33.2351C62.4231 33.2351 61.9973 33.2178 61.5759 33.1804L54.5822 26.1975C55.3281 22.8358 58.0695 20.2276 61.4995 19.6773C61.9415 19.6068 62.3933 19.5695 62.8532 19.5695C65.1933 19.5695 67.3113 20.519 68.8442 22.0515L74.5428 27.7549Z" fill="url(#paint8_linear_9_1863)"/>
<path d="M68.7527 12.6955C68.7527 15.9537 66.1114 18.595 62.8532 18.595C59.5955 18.595 56.9542 15.9537 56.9542 12.6955C56.9542 9.43777 59.5955 6.79651 62.8532 6.79651C66.1114 6.79651 68.7527 9.43777 68.7527 12.6955Z" fill="url(#paint9_linear_9_1863)"/>
<path d="M71.1247 26.1976C69.0181 28.3324 66.0897 29.6547 62.8531 29.6547C59.6171 29.6547 56.6887 28.3324 54.5826 26.1976C55.4239 22.4047 58.8067 19.5701 62.8531 19.5701C65.1937 19.5701 67.3112 20.5191 68.8442 22.0521C69.9628 23.169 70.7704 24.5985 71.1247 26.1976Z" fill="url(#paint10_linear_9_1863)"/>
<path d="M37.473 58.6154C37.473 67.0137 30.665 73.8221 22.2667 73.8221C13.8684 73.8221 7.05994 67.0137 7.05994 58.6154C7.05994 50.217 13.8684 43.4091 22.2667 43.4091C30.665 43.4091 37.473 50.217 37.473 58.6154Z" fill="url(#paint11_radial_9_1863)"/>
<path d="M37.4014 60.0817C37.1051 63.2078 35.8587 66.0587 33.9558 68.3413C33.2044 69.2433 32.3513 70.058 31.412 70.7632L20.9125 60.2643L18.2712 57.623C17.1012 56.5445 16.3672 54.9985 16.3672 53.2819C16.3672 50.0242 19.0085 47.3829 22.2662 47.3829C23.9828 47.3829 25.5287 48.1169 26.6067 49.287L37.4014 60.0817Z" fill="url(#paint12_linear_9_1863)"/>
<path d="M33.9558 68.3414C33.2045 69.2433 32.3513 70.058 31.412 70.7633C28.8672 72.6852 25.6994 73.8222 22.2667 73.8222C21.8361 73.8222 21.4103 73.8048 20.9889 73.7675L13.9957 66.784C14.7411 63.4229 17.4831 60.8146 20.9131 60.2643C21.3545 60.1939 21.8063 60.1565 22.2667 60.1565C24.6068 60.1565 26.7248 61.1061 28.2573 62.6385L33.9558 68.3414Z" fill="url(#paint13_linear_9_1863)"/>
<path d="M28.1657 53.2824C28.1657 56.5407 25.5244 59.1814 22.2667 59.1814C19.0085 59.1814 16.3672 56.5407 16.3672 53.2824C16.3672 50.0242 19.0085 47.3829 22.2667 47.3829C25.5244 47.3829 28.1657 50.0242 28.1657 53.2824Z" fill="url(#paint14_linear_9_1863)"/>
<path d="M30.5372 66.7846C28.4311 68.9194 25.5027 70.2416 22.2661 70.2416C19.0296 70.2416 16.1017 68.9194 13.9951 66.7846C14.8369 62.9917 18.2197 60.1565 22.2661 60.1565C24.6068 60.1565 26.7242 61.1061 28.2572 62.639C29.3758 63.756 30.1834 65.1855 30.5372 66.7846Z" fill="url(#paint15_linear_9_1863)"/>
<path d="M30.5371 66.784C30.5041 66.8187 30.47 66.8517 30.4358 66.8848C28.4441 68.8565 25.741 70.1095 22.7466 70.2302L21.251 68.7314L21.2282 68.713C20.9644 68.4947 20.8269 68.1605 20.8583 67.8197L21.3788 62.4077C21.3886 62.313 21.4287 62.2284 21.4888 62.1613C21.4834 62.1537 21.4791 62.1467 21.4731 62.138C21.3886 62.0838 21.3171 62.0064 21.2738 61.9099L20.6746 60.5823C20.6329 60.4918 20.6286 60.3959 20.653 60.3098C20.7288 60.2952 20.8052 60.2811 20.8827 60.2697C20.9368 60.2594 20.9926 60.2507 21.0473 60.2437C21.0907 60.2367 21.1351 60.2307 21.1795 60.2253C21.2299 60.2193 21.2797 60.2123 21.3317 60.208C21.3929 60.2009 21.4547 60.195 21.5164 60.1895C21.5766 60.1836 21.6383 60.1792 21.7001 60.1749C21.7629 60.1706 21.8263 60.1679 21.8891 60.1652C22.0142 60.1592 22.1399 60.1565 22.2667 60.1565C22.4974 60.1565 22.7266 60.1652 22.9535 60.1836C23.0136 60.1895 23.0738 60.1939 23.1328 60.2009C23.2547 60.2123 23.3766 60.228 23.4968 60.2453C23.5553 60.254 23.616 60.2637 23.6745 60.274C23.7433 60.2838 23.8121 60.2968 23.8798 60.3114C25.5731 60.637 27.0861 61.4668 28.2577 62.6385C29.3758 63.756 30.1834 65.1855 30.5371 66.784Z" fill="url(#paint16_linear_9_1863)"/>
<path d="M23.3046 68.7135L22.7148 69.2016C22.4547 69.4166 22.0783 69.4166 21.8183 69.2016L21.2284 68.7135C20.9646 68.4958 20.8264 68.161 20.8589 67.8203L21.3795 62.4083C21.4012 62.1824 21.5907 62.0101 21.8177 62.0101H22.7153C22.9423 62.0101 23.1318 62.1824 23.1535 62.4083L23.6741 67.8203C23.7066 68.1604 23.5684 68.4958 23.3046 68.7135Z" fill="url(#paint17_linear_9_1863)"/>
<path d="M23.1535 62.4083C23.1318 62.1824 22.9422 62.0101 22.7152 62.0101H21.8177C21.6839 62.0101 21.5642 62.0708 21.4829 62.1667L23.3057 63.9889L23.1535 62.4083Z" fill="url(#paint18_linear_9_1863)"/>
<path d="M23.8582 60.5823L23.2585 61.9105C23.1713 62.1039 22.979 62.2274 22.7656 62.2274H21.7672C21.5538 62.2274 21.3615 62.1039 21.2743 61.9105L20.6747 60.5823C20.633 60.4923 20.6292 60.3959 20.6535 60.3098C21.1752 60.2096 21.7147 60.1565 22.2667 60.1565C22.8187 60.1565 23.3576 60.2096 23.8798 60.3114C23.9042 60.3975 23.8982 60.4923 23.8582 60.5823Z" fill="url(#paint19_linear_9_1863)"/>
<path d="M37.473 18.0289C37.473 26.4272 30.665 33.2352 22.2667 33.2352C13.8684 33.2352 7.05994 26.4272 7.05994 18.0289C7.05994 9.63061 13.8684 2.82214 22.2667 2.82214C30.665 2.82214 37.473 9.63061 37.473 18.0289Z" fill="url(#paint20_radial_9_1863)"/>
<path d="M37.402 19.4952C37.1051 22.6213 35.8587 25.4716 33.9563 27.7549C33.205 28.6568 32.3513 29.4709 31.4125 30.1767L18.2718 17.0359C17.1017 15.9575 16.3672 14.412 16.3672 12.6954C16.3672 9.43716 19.0085 6.7959 22.2667 6.7959C23.9828 6.7959 25.5287 7.53043 26.6072 8.70047L37.402 19.4952Z" fill="url(#paint21_linear_9_1863)"/>
<path d="M33.9558 27.7549C33.2045 28.6568 32.3513 29.471 31.412 30.1768C28.8672 32.0981 25.6994 33.2351 22.2667 33.2351C21.8361 33.2351 21.4103 33.2178 20.9889 33.1804L13.9957 26.1975C14.7411 22.8358 17.4831 20.2276 20.9131 19.6773C21.3545 19.6068 21.8063 19.5695 22.2667 19.5695C24.6068 19.5695 26.7248 20.519 28.2573 22.0515L33.9558 27.7549Z" fill="url(#paint22_linear_9_1863)"/>
<path d="M28.1657 12.6955C28.1657 15.9537 25.5244 18.595 22.2667 18.595C19.0085 18.595 16.3672 15.9537 16.3672 12.6955C16.3672 9.43777 19.0085 6.79651 22.2667 6.79651C25.5244 6.79651 28.1657 9.43777 28.1657 12.6955Z" fill="url(#paint23_linear_9_1863)"/>
<path d="M30.5372 26.1976C28.4311 28.3324 25.5027 29.6547 22.2661 29.6547C19.0296 29.6547 16.1017 28.3324 13.9951 26.1976C14.8369 22.4047 18.2197 19.5701 22.2661 19.5701C24.6068 19.5701 26.7242 20.5191 28.2572 22.0521C29.3758 23.169 30.1834 24.5985 30.5372 26.1976Z" fill="url(#paint24_linear_9_1863)"/>
<path d="M30.5371 26.1975C30.5041 26.2317 30.47 26.2647 30.4358 26.2978C28.4441 28.2695 25.741 29.523 22.7466 29.6432L21.251 28.1444L21.2282 28.1259C20.9644 27.9082 20.8269 27.574 20.8583 27.2327L21.3788 21.8207C21.3886 21.7265 21.4287 21.642 21.4888 21.5742C21.4834 21.5672 21.4791 21.5596 21.4731 21.5515C21.3886 21.4968 21.3171 21.4193 21.2738 21.3234L20.6746 19.9952C20.6329 19.9048 20.6286 19.8089 20.653 19.7228C20.7288 19.7087 20.8052 19.694 20.8821 19.6827C20.9368 19.6724 20.9926 19.6643 21.0473 19.6567C21.0901 19.6496 21.1345 19.6442 21.1795 19.6383C21.2293 19.6323 21.2797 19.6253 21.3312 19.6209C21.3929 19.6139 21.4547 19.6079 21.5164 19.6025C21.5766 19.5965 21.6383 19.5922 21.7001 19.5879C21.7629 19.5835 21.8257 19.5808 21.8891 19.5781C22.0137 19.5722 22.1399 19.5695 22.2661 19.5695C22.4969 19.5695 22.7266 19.5781 22.953 19.5965C23.0136 19.6025 23.0738 19.6068 23.1323 19.6139C23.2542 19.6253 23.376 19.641 23.4968 19.6583C23.5553 19.667 23.6155 19.6767 23.6745 19.687C23.7433 19.6968 23.8121 19.7098 23.8793 19.7244C25.5731 20.0499 27.0861 20.8798 28.2572 22.0515C29.3758 23.169 30.1834 24.5985 30.5371 26.1975Z" fill="url(#paint25_linear_9_1863)"/>
<path d="M23.3046 28.1265L22.7148 28.6145C22.4547 28.8296 22.0783 28.8296 21.8183 28.6145L21.2284 28.1265C20.9646 27.9087 20.8264 27.574 20.8589 27.2332L21.3795 21.8212C21.4012 21.5954 21.5907 21.4231 21.8177 21.4231H22.7153C22.9423 21.4231 23.1318 21.5954 23.1535 21.8212L23.6741 27.2332C23.7066 27.574 23.5684 27.9087 23.3046 28.1265Z" fill="url(#paint26_linear_9_1863)"/>
<path d="M23.1535 21.8212C23.1318 21.5954 22.9422 21.4231 22.7152 21.4231H21.8177C21.6839 21.4231 21.5642 21.4843 21.4829 21.5796L23.3057 23.4019L23.1535 21.8212Z" fill="url(#paint27_linear_9_1863)"/>
<path d="M23.8581 19.9958L23.2585 21.3235C23.1713 21.5169 22.979 21.6404 22.7656 21.6404H21.7672C21.5538 21.6404 21.3615 21.5169 21.2743 21.3235L20.6746 19.9958C20.6329 19.9054 20.6286 19.8095 20.653 19.7234C21.1752 19.6226 21.7141 19.5701 22.2661 19.5701C22.8181 19.5701 23.3576 19.6226 23.8793 19.7244C23.9042 19.8106 23.8982 19.9054 23.8581 19.9958Z" fill="url(#paint28_linear_9_1863)"/>
<path d="M58.0153 22.7985L50.4729 20.5272C45.3117 18.9725 39.8076 18.9725 34.6469 20.5272L27.1045 22.7985C25.9675 23.1408 25.0531 23.9907 24.629 25.0996L21.0213 34.52C18.3497 41.4964 20.5679 49.3991 26.4788 53.9666L36.3419 61.5876C40.0042 64.4174 45.1156 64.4174 48.7779 61.5876L58.641 53.9666C64.5518 49.3991 66.7701 41.4964 64.0985 34.52L60.4908 25.0996C60.0667 23.9907 59.1518 23.1408 58.0153 22.7985Z" fill="url(#paint29_linear_9_1863)"/>
<path d="M48.778 61.5876L58.641 53.9666C64.5519 49.3991 66.7701 41.4964 64.0985 34.52L60.4909 25.0995C60.0667 23.9907 59.1524 23.1408 58.0154 22.7985L50.4729 20.5272C47.8928 19.7498 45.2261 19.3615 42.5599 19.3615V63.7099C44.7532 63.7099 46.9465 63.0025 48.778 61.5876Z" fill="url(#paint30_linear_9_1863)"/>
<path d="M55.8225 25.4565L49.3505 23.5075C44.9216 22.1739 40.1981 22.1739 35.7693 23.5075L29.2972 25.4565C28.3216 25.7507 27.5367 26.4798 27.1727 27.4315L24.077 35.5157C21.7846 41.5019 23.6875 48.2838 28.7604 52.2034L37.2237 58.7427C40.3666 61.171 44.7526 61.171 47.8955 58.7427L56.3594 52.2034C61.4317 48.2838 63.3352 41.5019 61.0428 35.5157L57.947 27.4315C57.583 26.4798 56.7981 25.7507 55.8225 25.4565Z" fill="url(#paint31_linear_9_1863)"/>
<path d="M58.9633 41.2998C58.9633 40.8426 58.9438 40.3897 58.907 39.9417L52.5899 33.6241C51.9203 32.9551 50.8353 32.9551 50.1664 33.6241L40.9967 42.7937C40.3277 43.4627 39.2427 43.4627 38.5732 42.7937L34.9542 39.1742C34.2846 38.5052 33.1996 38.5052 32.5306 39.1742L30.9229 40.7824C30.2534 41.4514 30.2534 42.5364 30.9229 43.2054L45.2067 57.4897C53.0075 56.2243 58.9633 49.4581 58.9633 41.2998Z" fill="url(#paint32_linear_9_1863)"/>
<path d="M38.2904 50.5734C39.1159 51.399 40.4544 51.399 41.28 50.5734L54.1976 37.6558C54.8666 36.9863 54.8666 35.9013 54.1976 35.2323L52.5899 33.6241C51.9203 32.9551 50.8353 32.9551 50.1664 33.6241L40.9967 42.7937C40.3277 43.4627 39.2427 43.4627 38.5732 42.7937L34.9542 39.1742C34.2846 38.5052 33.1996 38.5052 32.5306 39.1742L30.9229 40.7824C30.2534 41.4514 30.2534 42.5364 30.9229 43.2054L38.2904 50.5734Z" fill="url(#paint33_linear_9_1863)"/>
<path d="M47.8956 58.7427L56.3594 52.2034C61.4318 48.2838 63.3353 41.5019 61.0428 35.5157L57.9471 27.4316C57.5825 26.4798 56.7982 25.7507 55.8226 25.4566L49.35 23.5076C47.1356 22.8408 44.848 22.5071 42.5599 22.5071V60.5638C44.4423 60.5638 46.3247 59.9572 47.8956 58.7427Z" fill="url(#paint34_linear_9_1863)"/>
<path d="M54.0155 27.6477L48.4253 25.9641C44.5999 24.8119 40.5199 24.8119 36.6945 25.9641L31.1043 27.6477C30.2614 27.9012 29.5838 28.5312 29.269 29.3529L26.5953 36.3358C24.6149 41.5067 26.2589 47.3645 30.6406 50.7495L37.9507 56.3982C40.6656 58.4957 44.4542 58.4957 47.1686 56.3982L54.4792 50.7495C58.8603 47.364 60.5043 41.5067 58.5245 36.3358L55.8507 29.3529C55.536 28.5312 54.8583 27.9012 54.0155 27.6477Z" fill="url(#paint35_radial_9_1863)"/>
</g>
<defs>
<linearGradient id="paint0_linear_9_1863" x1="-24.3652" y1="-5.72332" x2="-9.49084" y2="73.4434" gradientUnits="userSpaceOnUse">
<stop stop-color="#FEFEFE"/>
<stop offset="1" stop-color="#DEE1E9"/>
</linearGradient>
<radialGradient id="paint1_radial_9_1863" cx="0" cy="0" r="1" gradientUnits="userSpaceOnUse" gradientTransform="translate(57.2745 48.4488) scale(24.9717)">
<stop stop-color="#FF6E3A"/>
<stop offset="0.2085" stop-color="#FF6A3C"/>
<stop offset="0.396" stop-color="#FF5F44"/>
<stop offset="0.5755" stop-color="#FF4D50"/>
<stop offset="0.7501" stop-color="#FF3361"/>
<stop offset="0.9195" stop-color="#FF1278"/>
<stop offset="1" stop-color="#FF0084"/>
</radialGradient>
<linearGradient id="paint2_linear_9_1863" x1="83.2198" y1="60.1781" x2="68.5759" y2="48.325" gradientUnits="userSpaceOnUse">
<stop stop-color="#FF0084" stop-opacity="0.01"/>
<stop offset="0.0737" stop-color="#F4087E" stop-opacity="0.07451"/>
<stop offset="0.3347" stop-color="#D2216B" stop-opacity="0.333333"/>
<stop offset="0.583" stop-color="#BA335E" stop-opacity="0.584314"/>
<stop offset="0.8111" stop-color="#AB3D56" stop-opacity="0.811765"/>
<stop offset="1" stop-color="#A64153"/>
</linearGradient>
<linearGradient id="paint3_linear_9_1863" x1="75.0315" y1="74.9577" x2="73.0184" y2="65.8317" gradientUnits="userSpaceOnUse">
<stop stop-color="#FF0084" stop-opacity="0.01"/>
<stop offset="0.0737" stop-color="#F4087E" stop-opacity="0.07451"/>
<stop offset="0.3347" stop-color="#D2216B" stop-opacity="0.333333"/>
<stop offset="0.583" stop-color="#BA335E" stop-opacity="0.584314"/>
<stop offset="0.8111" stop-color="#AB3D56" stop-opacity="0.811765"/>
<stop offset="1" stop-color="#A64153"/>
</linearGradient>
<linearGradient id="paint4_linear_9_1863" x1="57.7357" y1="50.563" x2="57.7357" y2="60.7986" gradientUnits="userSpaceOnUse">
<stop stop-color="#ECF7FF"/>
<stop offset="1" stop-color="#C2E0FF"/>
</linearGradient>
<linearGradient id="paint5_linear_9_1863" x1="55.6782" y1="62.8747" x2="55.6782" y2="71.6237" gradientUnits="userSpaceOnUse">
<stop stop-color="#ECF7FF"/>
<stop offset="1" stop-color="#C2E0FF"/>
</linearGradient>
<linearGradient id="paint6_linear_9_1863" x1="47.647" y1="33.2352" x2="78.06" y2="33.2352" gradientUnits="userSpaceOnUse">
<stop stop-color="#00C6F6"/>
<stop offset="0.8567" stop-color="#0B9CFD"/>
<stop offset="1" stop-color="#0D94FE"/>
</linearGradient>
<linearGradient id="paint7_linear_9_1863" x1="83.2196" y1="19.5911" x2="68.5755" y2="7.7383" gradientUnits="userSpaceOnUse">
<stop stop-color="#0D94FE" stop-opacity="0.01"/>
<stop offset="0.5142" stop-color="#0681CD" stop-opacity="0.513725"/>
<stop offset="1" stop-color="#0070A2"/>
</linearGradient>
<linearGradient id="paint8_linear_9_1863" x1="75.0317" y1="34.3708" x2="73.0187" y2="25.2449" gradientUnits="userSpaceOnUse">
<stop stop-color="#0D94FE" stop-opacity="0.01"/>
<stop offset="0.5142" stop-color="#0681CD" stop-opacity="0.513725"/>
<stop offset="1" stop-color="#0070A2"/>
</linearGradient>
<linearGradient id="paint9_linear_9_1863" x1="57.7357" y1="9.97616" x2="57.7357" y2="20.2118" gradientUnits="userSpaceOnUse">
<stop stop-color="#ECF7FF"/>
<stop offset="1" stop-color="#C2E0FF"/>
</linearGradient>
<linearGradient id="paint10_linear_9_1863" x1="55.6778" y1="22.2879" x2="55.6778" y2="31.0369" gradientUnits="userSpaceOnUse">
<stop stop-color="#ECF7FF"/>
<stop offset="1" stop-color="#C2E0FF"/>
</linearGradient>
<radialGradient id="paint11_radial_9_1863" cx="0" cy="0" r="1" gradientUnits="userSpaceOnUse" gradientTransform="translate(16.6875 48.4488) scale(24.9717)">
<stop stop-color="#8BE1E2"/>
<stop offset="0.1873" stop-color="#87E1E1"/>
<stop offset="0.3558" stop-color="#7CE2DD"/>
<stop offset="0.5172" stop-color="#6AE2D7"/>
<stop offset="0.6741" stop-color="#50E4CE"/>
<stop offset="0.8278" stop-color="#2FE5C2"/>
<stop offset="0.9772" stop-color="#07E7B4"/>
<stop offset="1" stop-color="#00E7B2"/>
</radialGradient>
<linearGradient id="paint12_linear_9_1863" x1="42.6326" y1="60.1779" x2="27.9884" y2="48.3252" gradientUnits="userSpaceOnUse">
<stop offset="0.0029" stop-color="#00E7B2" stop-opacity="0.01"/>
<stop offset="0.4308" stop-color="#1BC4B7" stop-opacity="0.427451"/>
<stop offset="1" stop-color="#3B9ABE"/>
</linearGradient>
<linearGradient id="paint13_linear_9_1863" x1="34.4445" y1="74.9576" x2="32.4315" y2="65.8317" gradientUnits="userSpaceOnUse">
<stop offset="0.0029" stop-color="#00E7B2" stop-opacity="0.01"/>
<stop offset="0.4308" stop-color="#1BC4B7" stop-opacity="0.427451"/>
<stop offset="1" stop-color="#3B9ABE"/>
</linearGradient>
<linearGradient id="paint14_linear_9_1863" x1="17.1486" y1="50.563" x2="17.1486" y2="60.7986" gradientUnits="userSpaceOnUse">
<stop stop-color="#ECF7FF"/>
<stop offset="1" stop-color="#C2E0FF"/>
</linearGradient>
<linearGradient id="paint15_linear_9_1863" x1="15.0912" y1="62.8747" x2="15.0912" y2="71.6237" gradientUnits="userSpaceOnUse">
<stop stop-color="#ECF7FF"/>
<stop offset="1" stop-color="#C2E0FF"/>
</linearGradient>
<linearGradient id="paint16_linear_9_1863" x1="28.0983" y1="63.1127" x2="21.4055" y2="60.8195" gradientUnits="userSpaceOnUse">
<stop offset="0.0029" stop-color="#C2E0FF" stop-opacity="0.01"/>
<stop offset="0.0763" stop-color="#BFDCFD" stop-opacity="0.07451"/>
<stop offset="1" stop-color="#9EB2E7"/>
</linearGradient>
<linearGradient id="paint17_linear_9_1863" x1="20.8543" y1="69.3628" x2="23.6787" y2="69.3628" gradientUnits="userSpaceOnUse">
<stop stop-color="#FF6E3A"/>
<stop offset="0.1596" stop-color="#FF6440"/>
<stop offset="0.4266" stop-color="#FF4B52"/>
<stop offset="0.7662" stop-color="#FF216E"/>
<stop offset="1" stop-color="#FF0084"/>
</linearGradient>
<linearGradient id="paint18_linear_9_1863" x1="25.0328" y1="62.4725" x2="22.3998" y2="60.2383" gradientUnits="userSpaceOnUse">
<stop stop-color="#E4003D" stop-opacity="0.01"/>
<stop offset="0.5838" stop-color="#BD294B" stop-opacity="0.584314"/>
<stop offset="1" stop-color="#A64153"/>
</linearGradient>
<linearGradient id="paint19_linear_9_1863" x1="20.6383" y1="62.2274" x2="23.8941" y2="62.2274" gradientUnits="userSpaceOnUse">
<stop stop-color="#FF6E3A"/>
<stop offset="0.1596" stop-color="#FF6440"/>
<stop offset="0.4266" stop-color="#FF4B52"/>
<stop offset="0.7662" stop-color="#FF216E"/>
<stop offset="1" stop-color="#FF0084"/>
</linearGradient>
<radialGradient id="paint20_radial_9_1863" cx="0" cy="0" r="1" gradientUnits="userSpaceOnUse" gradientTransform="translate(16.6875 7.86195) scale(24.9717)">
<stop stop-color="#FFD459"/>
<stop offset="0.2296" stop-color="#FFD355"/>
<stop offset="0.4362" stop-color="#FFCF4A"/>
<stop offset="0.634" stop-color="#FFC838"/>
<stop offset="0.825" stop-color="#FFBF1F"/>
<stop offset="1" stop-color="#FFB400"/>
</radialGradient>
<linearGradient id="paint21_linear_9_1863" x1="37.296" y1="14.2545" x2="22.6519" y2="2.40169" gradientUnits="userSpaceOnUse">
<stop stop-color="#E58200" stop-opacity="0.01"/>
<stop offset="0.0396" stop-color="#E27F04" stop-opacity="0.039216"/>
<stop offset="0.4671" stop-color="#C15D2F" stop-opacity="0.466667"/>
<stop offset="0.8016" stop-color="#AD4949" stop-opacity="0.8"/>
<stop offset="1" stop-color="#A64153"/>
</linearGradient>
<linearGradient id="paint22_linear_9_1863" x1="32.3769" y1="29.9771" x2="30.3639" y2="20.8512" gradientUnits="userSpaceOnUse">
<stop stop-color="#E58200" stop-opacity="0.01"/>
<stop offset="0.0396" stop-color="#E27F04" stop-opacity="0.039216"/>
<stop offset="0.4671" stop-color="#C15D2F" stop-opacity="0.466667"/>
<stop offset="0.8016" stop-color="#AD4949" stop-opacity="0.8"/>
<stop offset="1" stop-color="#A64153"/>
</linearGradient>
<linearGradient id="paint23_linear_9_1863" x1="17.1486" y1="9.97616" x2="17.1486" y2="20.2118" gradientUnits="userSpaceOnUse">
<stop stop-color="#FFFCF8"/>
<stop offset="0.1875" stop-color="#FAF8F6"/>
<stop offset="0.4041" stop-color="#ECEEF2"/>
<stop offset="0.6353" stop-color="#D5DCEA"/>
<stop offset="0.875" stop-color="#B5C4DF"/>
<stop offset="1" stop-color="#A1B5D8"/>
</linearGradient>
<linearGradient id="paint24_linear_9_1863" x1="15.0908" y1="22.2879" x2="15.0908" y2="31.0369" gradientUnits="userSpaceOnUse">
<stop stop-color="#ECF7FF"/>
<stop offset="1" stop-color="#C2E0FF"/>
</linearGradient>
<linearGradient id="paint25_linear_9_1863" x1="28.0983" y1="22.5258" x2="21.4055" y2="20.2326" gradientUnits="userSpaceOnUse">
<stop offset="0.0029" stop-color="#C2E0FF" stop-opacity="0.01"/>
<stop offset="0.0763" stop-color="#BFDCFD" stop-opacity="0.07451"/>
<stop offset="1" stop-color="#9EB2E7"/>
</linearGradient>
<linearGradient id="paint26_linear_9_1863" x1="20.8543" y1="28.7758" x2="23.6787" y2="28.7758" gradientUnits="userSpaceOnUse">
<stop stop-color="#FF6E3A"/>
<stop offset="0.1596" stop-color="#FF6440"/>
<stop offset="0.4266" stop-color="#FF4B52"/>
<stop offset="0.7662" stop-color="#FF216E"/>
<stop offset="1" stop-color="#FF0084"/>
</linearGradient>
<linearGradient id="paint27_linear_9_1863" x1="25.0328" y1="21.8855" x2="22.3998" y2="19.6513" gradientUnits="userSpaceOnUse">
<stop stop-color="#E4003D" stop-opacity="0.01"/>
<stop offset="0.5838" stop-color="#BD294B" stop-opacity="0.584314"/>
<stop offset="1" stop-color="#A64153"/>
</linearGradient>
<linearGradient id="paint28_linear_9_1863" x1="20.6379" y1="21.6404" x2="23.894" y2="21.6404" gradientUnits="userSpaceOnUse">
<stop stop-color="#FF6E3A"/>
<stop offset="0.1596" stop-color="#FF6440"/>
<stop offset="0.4266" stop-color="#FF4B52"/>
<stop offset="0.7662" stop-color="#FF216E"/>
<stop offset="1" stop-color="#FF0084"/>
</linearGradient>
<linearGradient id="paint29_linear_9_1863" x1="23.4453" y1="37.8053" x2="41.4833" y2="56.6404" gradientUnits="userSpaceOnUse">
<stop stop-color="#ECF7FF"/>
<stop offset="1" stop-color="#C2E0FF"/>
</linearGradient>
<linearGradient id="paint30_linear_9_1863" x1="62.2866" y1="14.2776" x2="34.4328" y2="14.2776" gradientUnits="userSpaceOnUse">
<stop offset="0.0029" stop-color="#C2E0FF" stop-opacity="0.01"/>
<stop offset="0.0763" stop-color="#BFDCFD" stop-opacity="0.07451"/>
<stop offset="1" stop-color="#9EB2E7"/>
</linearGradient>
<linearGradient id="paint31_linear_9_1863" x1="22.5397" y1="42.3249" x2="45.4565" y2="66.2547" gradientUnits="userSpaceOnUse">
<stop stop-color="#45425A"/>
<stop offset="1" stop-color="#2D3251"/>
</linearGradient>
<linearGradient id="paint32_linear_9_1863" x1="55.7717" y1="45.7255" x2="50.3222" y2="38.2485" gradientUnits="userSpaceOnUse">
<stop stop-color="#2D3251" stop-opacity="0.01"/>
<stop offset="1" stop-color="#131830"/>
</linearGradient>
<linearGradient id="paint33_linear_9_1863" x1="37.4231" y1="40.4699" x2="41.4537" y2="47.7459" gradientUnits="userSpaceOnUse">
<stop stop-color="#8BE1E2"/>
<stop offset="0.1873" stop-color="#87E1E1"/>
<stop offset="0.3558" stop-color="#7CE2DD"/>
<stop offset="0.5172" stop-color="#6AE2D7"/>
<stop offset="0.6741" stop-color="#50E4CE"/>
<stop offset="0.8278" stop-color="#2FE5C2"/>
<stop offset="0.9772" stop-color="#07E7B4"/>
<stop offset="1" stop-color="#00E7B2"/>
</linearGradient>
<linearGradient id="paint34_linear_9_1863" x1="54.8025" y1="17.8979" x2="27.4597" y2="15.5542" gradientUnits="userSpaceOnUse">
<stop stop-color="#2D3251" stop-opacity="0.01"/>
<stop offset="1" stop-color="#131830"/>
</linearGradient>
<radialGradient id="paint35_radial_9_1863" cx="0" cy="0" r="1" gradientUnits="userSpaceOnUse" gradientTransform="translate(45.7097 48.4856) scale(39.033 38.1977)">
<stop stop-color="white" stop-opacity="0.01"/>
<stop offset="0.8587" stop-color="white" stop-opacity="0.858824"/>
<stop offset="1" stop-color="white"/>
</radialGradient>
</defs>
</svg>
