<svg width="131" height="27" viewBox="0 0 131 27" fill="none" xmlns="http://www.w3.org/2000/svg">
<g clip-path="url(#clip0_9_2177)">
<rect width="131" height="27" rx="12" fill="url(#paint0_linear_9_2177)"/>
<path fill-rule="evenodd" clip-rule="evenodd" d="M16 6.5C12.134 6.5 9 9.63401 9 13.5C9 17.366 12.134 20.5 16 20.5C19.866 20.5 23 17.366 23 13.5C22.9958 9.63574 19.8643 6.50418 16 6.5ZM16 19.3333C12.7783 19.3333 10.1667 16.7217 10.1667 13.5C10.1667 10.2783 12.7783 7.66667 16 7.66667C19.2217 7.66667 21.8333 10.2783 21.8333 13.5C21.8298 16.7202 19.2202 19.3298 16 19.3333ZM15.4167 10.5833C15.4167 10.2612 15.6778 10 16 10C16.3222 10 16.5833 10.2612 16.5833 10.5833V13.4294C16.5855 13.6325 16.4819 13.8221 16.3098 13.9299L14.0697 15.3299C13.7959 15.501 13.4352 15.4177 13.2642 15.1438C13.0931 14.87 13.1764 14.5093 13.4503 14.3383L15.4167 13.1062V10.5833Z" fill="white"/>
<path d="M16 6.5L16.0001 6.4H16V6.5ZM23 13.5H23.1V13.4999L23 13.5ZM16 19.3333V19.4333H16.0001L16 19.3333ZM21.8333 13.5L21.9333 13.5001V13.5H21.8333ZM16.5833 13.4294H16.4833L16.4833 13.4305L16.5833 13.4294ZM16.3098 13.9299L16.3628 14.0147L16.3628 14.0147L16.3098 13.9299ZM14.0697 15.3299L14.1227 15.4147L14.1227 15.4147L14.0697 15.3299ZM13.4503 14.3383L13.5032 14.4231L13.5033 14.423L13.4503 14.3383ZM15.4167 13.1062L15.4698 13.191L15.5167 13.1616V13.1062H15.4167ZM9.1 13.5C9.1 9.68924 12.1892 6.6 16 6.6V6.4C12.0788 6.4 8.9 9.57878 8.9 13.5H9.1ZM16 20.4C12.1892 20.4 9.1 17.3108 9.1 13.5H8.9C8.9 17.4212 12.0788 20.6 16 20.6V20.4ZM22.9 13.5C22.9 17.3108 19.8108 20.4 16 20.4V20.6C19.9212 20.6 23.1 17.4212 23.1 13.5H22.9ZM15.9999 6.6C19.809 6.60412 22.8959 9.69099 22.9 13.5001L23.1 13.4999C23.0958 9.58049 19.9195 6.40424 16.0001 6.4L15.9999 6.6ZM10.0667 13.5C10.0667 16.7769 12.7231 19.4333 16 19.4333V19.2333C12.8336 19.2333 10.2667 16.6664 10.2667 13.5H10.0667ZM16 7.56667C12.7231 7.56667 10.0667 10.2231 10.0667 13.5H10.2667C10.2667 10.3336 12.8336 7.76667 16 7.76667V7.56667ZM21.9333 13.5C21.9333 10.2231 19.2769 7.56667 16 7.56667V7.76667C19.1664 7.76667 21.7333 10.3336 21.7333 13.5H21.9333ZM16.0001 19.4333C19.2754 19.4297 21.9297 16.7754 21.9333 13.5001L21.7333 13.4999C21.7299 16.6649 19.1649 19.2299 15.9999 19.2333L16.0001 19.4333ZM16 9.9C15.6226 9.9 15.3167 10.2059 15.3167 10.5833H15.5167C15.5167 10.3164 15.7331 10.1 16 10.1V9.9ZM16.6833 10.5833C16.6833 10.2059 16.3774 9.9 16 9.9V10.1C16.2669 10.1 16.4833 10.3164 16.4833 10.5833H16.6833ZM16.6833 13.4294V10.5833H16.4833V13.4294H16.6833ZM16.3628 14.0147C16.5645 13.8883 16.6858 13.6663 16.6833 13.4284L16.4833 13.4305C16.4851 13.5987 16.3993 13.7558 16.2567 13.8452L16.3628 14.0147ZM14.1227 15.4147L16.3628 14.0147L16.2568 13.8451L14.0167 15.2451L14.1227 15.4147ZM13.1794 15.1968C13.3797 15.5175 13.8021 15.6151 14.1227 15.4147L14.0168 15.2451C13.7898 15.3869 13.4908 15.3179 13.349 15.0909L13.1794 15.1968ZM13.3973 14.2534C13.0766 14.4538 12.979 14.8761 13.1794 15.1968L13.349 15.0909C13.2072 14.8638 13.2762 14.5649 13.5032 14.4231L13.3973 14.2534ZM15.3636 13.0215L13.3972 14.2535L13.5033 14.423L15.4698 13.191L15.3636 13.0215ZM15.3167 10.5833V13.1062H15.5167V10.5833H15.3167Z" fill="white"/>
<path d="M106.098 18.5181C105.297 18.5181 104.581 18.3178 103.952 17.9171C103.322 17.5069 102.826 16.9154 102.463 16.1426C102.101 15.3604 101.92 14.435 101.92 13.3665C101.92 12.298 102.101 11.3774 102.463 10.6047C102.826 9.82239 103.322 9.23091 103.952 8.83023C104.581 8.42001 105.297 8.2149 106.098 8.2149C106.899 8.2149 107.615 8.42001 108.245 8.83023C108.884 9.23091 109.385 9.82239 109.747 10.6047C110.11 11.3774 110.291 12.298 110.291 13.3665C110.291 14.435 110.11 15.3604 109.747 16.1426C109.385 16.9154 108.884 17.5069 108.245 17.9171C107.615 18.3178 106.899 18.5181 106.098 18.5181ZM106.098 16.9011C106.814 16.9011 107.376 16.6053 107.787 16.0138C108.206 15.4224 108.416 14.5399 108.416 13.3665C108.416 12.1931 108.206 11.3106 107.787 10.7191C107.376 10.1277 106.814 9.83193 106.098 9.83193C105.392 9.83193 104.829 10.1277 104.409 10.7191C103.999 11.3106 103.794 12.1931 103.794 13.3665C103.794 14.5399 103.999 15.4224 104.409 16.0138C104.829 16.6053 105.392 16.9011 106.098 16.9011ZM114.682 12.236C116.094 12.236 117.139 12.5127 117.816 13.066C118.493 13.6098 118.832 14.3539 118.832 15.2983C118.832 15.8994 118.684 16.4431 118.388 16.9297C118.093 17.4162 117.649 17.8026 117.057 18.0888C116.466 18.375 115.736 18.5181 114.868 18.5181C114.152 18.5181 113.461 18.4179 112.793 18.2176C112.125 18.0077 111.562 17.7215 111.104 17.359L111.892 15.9137C112.264 16.219 112.707 16.4622 113.222 16.6435C113.747 16.8152 114.286 16.9011 114.839 16.9011C115.498 16.9011 116.013 16.7675 116.385 16.5004C116.766 16.2237 116.957 15.8469 116.957 15.3699C116.957 14.8547 116.752 14.4684 116.342 14.2108C115.941 13.9437 115.25 13.8101 114.267 13.8101H111.849L112.364 8.358H118.245V9.91779H113.938L113.723 12.236H114.682Z" fill="white"/>
<path d="M69.5997 12.236C71.0116 12.236 72.0563 12.5127 72.7336 13.066C73.4109 13.6098 73.7496 14.3539 73.7496 15.2983C73.7496 15.8994 73.6017 16.4431 73.306 16.9297C73.0103 17.4162 72.5667 17.8026 71.9752 18.0888C71.3837 18.375 70.6539 18.5181 69.7857 18.5181C69.0702 18.5181 68.3786 18.4179 67.7108 18.2176C67.043 18.0077 66.4801 17.7215 66.0222 17.359L66.8093 15.9137C67.1813 16.219 67.6249 16.4622 68.1401 16.6435C68.6648 16.8152 69.2038 16.9011 69.7571 16.9011C70.4154 16.9011 70.9305 16.7675 71.3026 16.5004C71.6842 16.2237 71.875 15.8469 71.875 15.3699C71.875 14.8547 71.6699 14.4684 71.2597 14.2108C70.859 13.9437 70.1673 13.8101 69.1847 13.8101H66.7663L67.2815 8.358H73.1629V9.91779H68.8556L68.6409 12.236H69.5997ZM82.0079 16.8009V18.375H74.624V17.13L78.6022 13.3522C79.0505 12.9229 79.351 12.5508 79.5037 12.236C79.6659 11.9116 79.747 11.5921 79.747 11.2772C79.747 10.8098 79.5895 10.452 79.2747 10.204C78.9599 9.95595 78.4972 9.83193 77.8867 9.83193C76.8659 9.83193 76.0836 10.1801 75.5398 10.8766L74.2376 9.87486C74.6287 9.35016 75.1534 8.94471 75.8117 8.65851C76.4795 8.36277 77.2236 8.2149 78.0441 8.2149C79.1316 8.2149 79.9998 8.47248 80.6485 8.98764C81.2972 9.5028 81.6216 10.204 81.6216 11.0912C81.6216 11.635 81.5071 12.1454 81.2781 12.6224C81.0492 13.0994 80.6103 13.6432 79.9616 14.2537L77.2856 16.8009H82.0079Z" fill="white"/>
<path d="M32.5098 18.5181C31.7085 18.5181 30.993 18.3178 30.3633 17.9171C29.7337 17.5069 29.2376 16.9154 28.8751 16.1426C28.5126 15.3604 28.3313 14.435 28.3313 13.3665C28.3313 12.298 28.5126 11.3774 28.8751 10.6047C29.2376 9.82239 29.7337 9.23091 30.3633 8.83023C30.993 8.42001 31.7085 8.2149 32.5098 8.2149C33.3112 8.2149 34.0267 8.42001 34.6563 8.83023C35.2955 9.23091 35.7964 9.82239 36.1589 10.6047C36.5214 11.3774 36.7027 12.298 36.7027 13.3665C36.7027 14.435 36.5214 15.3604 36.1589 16.1426C35.7964 16.9154 35.2955 17.5069 34.6563 17.9171C34.0267 18.3178 33.3112 18.5181 32.5098 18.5181ZM32.5098 16.9011C33.2253 16.9011 33.7882 16.6053 34.1984 16.0138C34.6182 15.4224 34.828 14.5399 34.828 13.3665C34.828 12.1931 34.6182 11.3106 34.1984 10.7191C33.7882 10.1277 33.2253 9.83193 32.5098 9.83193C31.8039 9.83193 31.241 10.1277 30.8212 10.7191C30.411 11.3106 30.2059 12.1931 30.2059 13.3665C30.2059 14.5399 30.411 15.4224 30.8212 16.0138C31.241 16.6053 31.8039 16.9011 32.5098 16.9011ZM44.4565 13.1089C44.9812 13.3474 45.3819 13.6718 45.6586 14.082C45.9448 14.4827 46.0879 14.9549 46.0879 15.4987C46.0879 16.1092 45.9162 16.6435 45.5727 17.1014C45.2388 17.5593 44.7618 17.9123 44.1417 18.1603C43.5216 18.3989 42.8014 18.5181 41.9809 18.5181C41.1605 18.5181 40.4402 18.3989 39.8201 18.1603C39.2095 17.9123 38.7373 17.5593 38.4034 17.1014C38.0695 16.6435 37.9026 16.1092 37.9026 15.4987C37.9026 14.9549 38.0409 14.4827 38.3176 14.082C38.5942 13.6718 38.9901 13.3474 39.5053 13.1089C39.1046 12.8895 38.7946 12.6033 38.5751 12.2503C38.3653 11.8878 38.2603 11.4728 38.2603 11.0053C38.2603 10.4425 38.413 9.95118 38.7182 9.53142C39.0331 9.11166 39.4719 8.7873 40.0348 8.55834C40.5976 8.32938 41.2463 8.2149 41.9809 8.2149C42.725 8.2149 43.3785 8.32938 43.9414 8.55834C44.5042 8.7873 44.9431 9.11166 45.2579 9.53142C45.5727 9.95118 45.7301 10.4425 45.7301 11.0053C45.7301 11.4728 45.6204 11.883 45.401 12.236C45.1816 12.589 44.8668 12.88 44.4565 13.1089ZM41.9809 9.67452C41.399 9.67452 40.9363 9.79854 40.5928 10.0466C40.2589 10.2946 40.092 10.6428 40.092 11.0912C40.092 11.5205 40.2589 11.8639 40.5928 12.1215C40.9363 12.3696 41.399 12.4936 41.9809 12.4936C42.5724 12.4936 43.0399 12.3696 43.3833 12.1215C43.7267 11.8639 43.8985 11.5205 43.8985 11.0912C43.8985 10.6428 43.722 10.2946 43.369 10.0466C43.0255 9.79854 42.5629 9.67452 41.9809 9.67452ZM41.9809 17.0585C42.6678 17.0585 43.2116 16.9154 43.6123 16.6292C44.0129 16.343 44.2133 15.9471 44.2133 15.4414C44.2133 14.9454 44.0129 14.5542 43.6123 14.268C43.2116 13.9818 42.6678 13.8387 41.9809 13.8387C41.294 13.8387 40.755 13.9818 40.3639 14.268C39.9727 14.5542 39.7772 14.9454 39.7772 15.4414C39.7772 15.9471 39.9727 16.343 40.3639 16.6292C40.755 16.9154 41.294 17.0585 41.9809 17.0585Z" fill="white"/>
<path fill-rule="evenodd" clip-rule="evenodd" d="M55.5466 12.5727C55.8324 12.8585 56.1845 13.0014 56.6029 13.0014C57.0214 13.0014 57.3735 12.8585 57.6593 12.5727C57.945 12.2869 58.0879 11.9297 58.0879 11.5011C58.0879 11.0622 57.945 10.7075 57.6593 10.4371C57.3735 10.1666 57.0214 10.0314 56.6029 10.0314C56.1845 10.0314 55.8324 10.1666 55.5466 10.4371C55.2608 10.7075 55.1179 11.0622 55.1179 11.5011C55.1179 11.9297 55.2608 12.2869 55.5466 12.5727ZM55.5466 18.0688C55.8324 18.3545 56.1845 18.4974 56.6029 18.4974C57.0214 18.4974 57.3735 18.3545 57.6593 18.0688C57.945 17.783 58.0879 17.4258 58.0879 16.9971C58.0879 16.5582 57.945 16.2036 57.6593 15.9331C57.3735 15.6627 57.0214 15.5274 56.6029 15.5274C56.1845 15.5274 55.8324 15.6627 55.5466 15.9331C55.2608 16.2036 55.1179 16.5582 55.1179 16.9971C55.1179 17.4258 55.2608 17.783 55.5466 18.0688Z" fill="white"/>
<path fill-rule="evenodd" clip-rule="evenodd" d="M92.3408 12.5727C92.6265 12.8585 92.9787 13.0014 93.3971 13.0014C93.8156 13.0014 94.1677 12.8585 94.4535 12.5727C94.7392 12.2869 94.8821 11.9297 94.8821 11.5011C94.8821 11.0622 94.7392 10.7075 94.4535 10.4371C94.1677 10.1666 93.8156 10.0314 93.3971 10.0314C92.9787 10.0314 92.6265 10.1666 92.3408 10.4371C92.055 10.7075 91.9121 11.0622 91.9121 11.5011C91.9121 11.9297 92.055 12.2869 92.3408 12.5727ZM92.3408 18.0688C92.6265 18.3545 92.9787 18.4974 93.3971 18.4974C93.8156 18.4974 94.1677 18.3545 94.4535 18.0688C94.7392 17.783 94.8821 17.4258 94.8821 16.9971C94.8821 16.5582 94.7392 16.2036 94.4535 15.9331C94.1677 15.6627 93.8156 15.5274 93.3971 15.5274C92.9787 15.5274 92.6265 15.6627 92.3408 15.9331C92.055 16.2036 91.9121 16.5582 91.9121 16.9971C91.9121 17.4258 92.055 17.783 92.3408 18.0688Z" fill="white"/>
</g>
<defs>
<linearGradient id="paint0_linear_9_2177" x1="96" y1="-24" x2="82.5" y2="40" gradientUnits="userSpaceOnUse">
<stop stop-color="#FFAA5D"/>
<stop offset="1" stop-color="#F63C3C"/>
</linearGradient>
<clipPath id="clip0_9_2177">
<rect width="131" height="27" fill="white"/>
</clipPath>
</defs>
</svg>
